STARTFONT 2.1
FONT -FontForge-Artos Sans-Medium-R-Normal-Sans-8-80-75-75-P-50-ISO10646-1
SIZE 8 75 75
FONTBOUNDINGBOX 12 8 0 -1
COMMENT "Generated by fontforge, http://fontforge.sourceforge.net"
COMMENT "Created by usr_share with FontForge 2.0 (http://fontforge.sf.net)"
STARTPROPERTIES 31
FOUNDRY "FontForge"
FAMILY_NAME "Artos Sans"
WEIGHT_NAME "Medium"
SLANT "R"
SETWIDTH_NAME "Normal"
ADD_STYLE_NAME "Sans"
PIXEL_SIZE 8
POINT_SIZE 80
RESOLUTION_X 75
RESOLUTION_Y 75
SPACING "P"
AVERAGE_WIDTH 50
CHARSET_REGISTRY "ISO10646"
CHARSET_ENCODING "1"
FONTNAME_REGISTRY ""
CHARSET_COLLECTIONS "ISO8859-5 ISO10646-1"
FONT_NAME "ArtosSans"
FACE_NAME "Artos Sans"
FONT_VERSION "001.000"
FONT_ASCENT 7
FONT_DESCENT 1
UNDERLINE_POSITION -1
UNDERLINE_THICKNESS 1
X_HEIGHT 4
CAP_HEIGHT 6
RAW_ASCENT 875
RAW_DESCENT 125
NORM_SPACE 8
FIGURE_WIDTH 8
AVG_LOWERCASE_WIDTH 67
AVG_UPPERCASE_WIDTH 64
ENDPROPERTIES
CHARS 170
STARTCHAR space
ENCODING 32
SWIDTH 1000 0
DWIDTH 8 0
BBX 1 1 11 -1
BITMAP
00
ENDCHAR
STARTCHAR exclam
ENCODING 33
SWIDTH 1000 0
DWIDTH 8 0
BBX 1 7 3 0
BITMAP
80
80
80
80
80
00
80
ENDCHAR
STARTCHAR quotedbl
ENCODING 34
SWIDTH 1000 0
DWIDTH 8 0
BBX 5 2 1 5
BITMAP
88
88
ENDCHAR
STARTCHAR numbersign
ENCODING 35
SWIDTH 1000 0
DWIDTH 8 0
BBX 6 7 1 0
BITMAP
48
FC
48
48
48
FC
48
ENDCHAR
STARTCHAR dollar
ENCODING 36
SWIDTH 1000 0
DWIDTH 8 0
BBX 5 7 1 0
BITMAP
20
78
80
70
08
F0
20
ENDCHAR
STARTCHAR percent
ENCODING 37
SWIDTH 1000 0
DWIDTH 8 0
BBX 7 7 0 0
BITMAP
42
A4
48
10
24
4A
84
ENDCHAR
STARTCHAR ampersand
ENCODING 38
SWIDTH 1000 0
DWIDTH 8 0
BBX 7 7 1 0
BITMAP
38
44
48
30
4A
84
7A
ENDCHAR
STARTCHAR quotesingle
ENCODING 39
SWIDTH 1000 0
DWIDTH 8 0
BBX 1 2 4 5
BITMAP
80
80
ENDCHAR
STARTCHAR parenleft
ENCODING 40
SWIDTH 1000 0
DWIDTH 8 0
BBX 3 7 2 0
BITMAP
20
40
80
80
80
40
20
ENDCHAR
STARTCHAR parenright
ENCODING 41
SWIDTH 1000 0
DWIDTH 8 0
BBX 3 7 3 0
BITMAP
80
40
20
20
20
40
80
ENDCHAR
STARTCHAR asterisk
ENCODING 42
SWIDTH 1000 0
DWIDTH 8 0
BBX 5 5 2 2
BITMAP
20
A8
70
A8
20
ENDCHAR
STARTCHAR plus
ENCODING 43
SWIDTH 1000 0
DWIDTH 8 0
BBX 5 5 1 1
BITMAP
20
20
F8
20
20
ENDCHAR
STARTCHAR comma
ENCODING 44
SWIDTH 1000 0
DWIDTH 8 0
BBX 2 3 3 0
BITMAP
40
40
80
ENDCHAR
STARTCHAR hyphen
ENCODING 45
SWIDTH 1000 0
DWIDTH 8 0
BBX 6 1 1 3
BITMAP
FC
ENDCHAR
STARTCHAR period
ENCODING 46
SWIDTH 1000 0
DWIDTH 8 0
BBX 1 1 3 0
BITMAP
80
ENDCHAR
STARTCHAR slash
ENCODING 47
SWIDTH 1000 0
DWIDTH 8 0
BBX 7 7 0 0
BITMAP
02
04
08
10
20
40
80
ENDCHAR
STARTCHAR zero
ENCODING 48
SWIDTH 1000 0
DWIDTH 8 0
BBX 5 7 1 0
BITMAP
70
88
88
88
88
88
70
ENDCHAR
STARTCHAR one
ENCODING 49
SWIDTH 1000 0
DWIDTH 8 0
BBX 5 7 1 0
BITMAP
20
60
20
20
20
20
F8
ENDCHAR
STARTCHAR two
ENCODING 50
SWIDTH 1000 0
DWIDTH 8 0
BBX 5 7 1 0
BITMAP
70
88
08
30
40
80
F8
ENDCHAR
STARTCHAR three
ENCODING 51
SWIDTH 1000 0
DWIDTH 8 0
BBX 5 7 1 0
BITMAP
70
88
08
30
08
88
70
ENDCHAR
STARTCHAR four
ENCODING 52
SWIDTH 1000 0
DWIDTH 8 0
BBX 5 7 1 0
BITMAP
30
50
90
90
F8
10
10
ENDCHAR
STARTCHAR five
ENCODING 53
SWIDTH 1000 0
DWIDTH 8 0
BBX 5 7 1 0
BITMAP
F8
80
F0
08
08
88
70
ENDCHAR
STARTCHAR six
ENCODING 54
SWIDTH 1000 0
DWIDTH 8 0
BBX 5 7 1 0
BITMAP
70
88
80
F0
88
88
70
ENDCHAR
STARTCHAR seven
ENCODING 55
SWIDTH 1000 0
DWIDTH 8 0
BBX 5 7 1 0
BITMAP
F8
08
10
20
20
20
20
ENDCHAR
STARTCHAR eight
ENCODING 56
SWIDTH 1000 0
DWIDTH 8 0
BBX 5 7 1 0
BITMAP
70
88
88
70
88
88
70
ENDCHAR
STARTCHAR nine
ENCODING 57
SWIDTH 1000 0
DWIDTH 8 0
BBX 5 7 1 0
BITMAP
70
88
88
78
08
88
70
ENDCHAR
STARTCHAR colon
ENCODING 58
SWIDTH 1000 0
DWIDTH 8 0
BBX 1 4 3 2
BITMAP
80
00
00
80
ENDCHAR
STARTCHAR semicolon
ENCODING 59
SWIDTH 1000 0
DWIDTH 8 0
BBX 2 5 3 1
BITMAP
40
00
00
40
80
ENDCHAR
STARTCHAR less
ENCODING 60
SWIDTH 1000 0
DWIDTH 8 0
BBX 4 7 2 0
BITMAP
10
20
40
80
40
20
10
ENDCHAR
STARTCHAR equal
ENCODING 61
SWIDTH 1000 0
DWIDTH 8 0
BBX 6 3 1 2
BITMAP
FC
00
FC
ENDCHAR
STARTCHAR greater
ENCODING 62
SWIDTH 1000 0
DWIDTH 8 0
BBX 4 7 3 0
BITMAP
80
40
20
10
20
40
80
ENDCHAR
STARTCHAR question
ENCODING 63
SWIDTH 1000 0
DWIDTH 8 0
BBX 5 7 1 0
BITMAP
70
88
08
30
20
00
20
ENDCHAR
STARTCHAR at
ENCODING 64
SWIDTH 1000 0
DWIDTH 8 0
BBX 8 8 0 -1
BITMAP
3C
42
99
A5
A5
9E
40
3C
ENDCHAR
STARTCHAR A
ENCODING 65
SWIDTH 1000 0
DWIDTH 8 0
BBX 7 7 0 0
BITMAP
10
28
28
44
7C
82
82
ENDCHAR
STARTCHAR B
ENCODING 66
SWIDTH 1000 0
DWIDTH 8 0
BBX 7 7 0 0
BITMAP
FC
82
82
FC
82
82
FC
ENDCHAR
STARTCHAR C
ENCODING 67
SWIDTH 1000 0
DWIDTH 8 0
BBX 7 7 0 0
BITMAP
7C
82
80
80
80
82
7C
ENDCHAR
STARTCHAR D
ENCODING 68
SWIDTH 1000 0
DWIDTH 8 0
BBX 7 7 0 0
BITMAP
FC
82
82
82
82
82
FC
ENDCHAR
STARTCHAR E
ENCODING 69
SWIDTH 1000 0
DWIDTH 8 0
BBX 7 7 0 0
BITMAP
FE
80
80
F8
80
80
FE
ENDCHAR
STARTCHAR F
ENCODING 70
SWIDTH 1000 0
DWIDTH 8 0
BBX 7 7 0 0
BITMAP
FE
80
80
F8
80
80
80
ENDCHAR
STARTCHAR G
ENCODING 71
SWIDTH 1000 0
DWIDTH 8 0
BBX 7 7 0 0
BITMAP
7C
82
80
8E
82
82
7C
ENDCHAR
STARTCHAR H
ENCODING 72
SWIDTH 1000 0
DWIDTH 8 0
BBX 7 7 0 0
BITMAP
82
82
82
FE
82
82
82
ENDCHAR
STARTCHAR I
ENCODING 73
SWIDTH 1000 0
DWIDTH 8 0
BBX 5 7 1 0
BITMAP
F8
20
20
20
20
20
F8
ENDCHAR
STARTCHAR J
ENCODING 74
SWIDTH 1000 0
DWIDTH 8 0
BBX 7 7 0 0
BITMAP
02
02
02
02
02
82
7C
ENDCHAR
STARTCHAR K
ENCODING 75
SWIDTH 1000 0
DWIDTH 8 0
BBX 7 7 0 0
BITMAP
82
84
88
F0
88
84
82
ENDCHAR
STARTCHAR L
ENCODING 76
SWIDTH 1000 0
DWIDTH 8 0
BBX 7 7 0 0
BITMAP
80
80
80
80
80
80
FE
ENDCHAR
STARTCHAR M
ENCODING 77
SWIDTH 1000 0
DWIDTH 8 0
BBX 7 7 0 0
BITMAP
82
C6
AA
92
82
82
82
ENDCHAR
STARTCHAR N
ENCODING 78
SWIDTH 1000 0
DWIDTH 8 0
BBX 7 7 0 0
BITMAP
82
C2
A2
92
8A
86
82
ENDCHAR
STARTCHAR O
ENCODING 79
SWIDTH 1000 0
DWIDTH 8 0
BBX 7 7 0 0
BITMAP
7C
82
82
82
82
82
7C
ENDCHAR
STARTCHAR P
ENCODING 80
SWIDTH 1000 0
DWIDTH 8 0
BBX 7 7 0 0
BITMAP
FC
82
82
82
FC
80
80
ENDCHAR
STARTCHAR Q
ENCODING 81
SWIDTH 1000 0
DWIDTH 8 0
BBX 7 8 0 -1
BITMAP
7C
82
82
82
82
8A
7C
02
ENDCHAR
STARTCHAR R
ENCODING 82
SWIDTH 1000 0
DWIDTH 8 0
BBX 7 7 0 0
BITMAP
FC
82
82
FC
84
82
82
ENDCHAR
STARTCHAR S
ENCODING 83
SWIDTH 1000 0
DWIDTH 8 0
BBX 7 7 0 0
BITMAP
7C
82
80
7C
02
82
7C
ENDCHAR
STARTCHAR T
ENCODING 84
SWIDTH 1000 0
DWIDTH 8 0
BBX 7 7 0 0
BITMAP
FE
10
10
10
10
10
10
ENDCHAR
STARTCHAR U
ENCODING 85
SWIDTH 1000 0
DWIDTH 8 0
BBX 7 7 0 0
BITMAP
82
82
82
82
82
82
7C
ENDCHAR
STARTCHAR V
ENCODING 86
SWIDTH 1000 0
DWIDTH 8 0
BBX 7 7 0 0
BITMAP
82
82
82
82
44
28
10
ENDCHAR
STARTCHAR W
ENCODING 87
SWIDTH 1000 0
DWIDTH 8 0
BBX 7 7 0 0
BITMAP
82
82
92
92
92
6C
44
ENDCHAR
STARTCHAR X
ENCODING 88
SWIDTH 1000 0
DWIDTH 8 0
BBX 7 7 0 0
BITMAP
82
44
28
10
28
44
82
ENDCHAR
STARTCHAR Y
ENCODING 89
SWIDTH 1000 0
DWIDTH 8 0
BBX 7 7 0 0
BITMAP
82
82
44
28
10
10
10
ENDCHAR
STARTCHAR Z
ENCODING 90
SWIDTH 1000 0
DWIDTH 8 0
BBX 7 7 0 0
BITMAP
FE
04
08
10
20
40
FE
ENDCHAR
STARTCHAR bracketleft
ENCODING 91
SWIDTH 1000 0
DWIDTH 8 0
BBX 3 7 2 0
BITMAP
E0
80
80
80
80
80
E0
ENDCHAR
STARTCHAR backslash
ENCODING 92
SWIDTH 1000 0
DWIDTH 8 0
BBX 7 7 0 0
BITMAP
80
40
20
10
08
04
02
ENDCHAR
STARTCHAR bracketright
ENCODING 93
SWIDTH 1000 0
DWIDTH 8 0
BBX 3 7 3 0
BITMAP
E0
20
20
20
20
20
E0
ENDCHAR
STARTCHAR asciicircum
ENCODING 94
SWIDTH 1000 0
DWIDTH 8 0
BBX 5 3 1 4
BITMAP
20
50
88
ENDCHAR
STARTCHAR underscore
ENCODING 95
SWIDTH 1000 0
DWIDTH 8 0
BBX 8 1 0 -1
BITMAP
FF
ENDCHAR
STARTCHAR grave
ENCODING 96
SWIDTH 1000 0
DWIDTH 8 0
BBX 2 2 3 5
BITMAP
80
40
ENDCHAR
STARTCHAR a
ENCODING 97
SWIDTH 1000 0
DWIDTH 8 0
BBX 6 5 1 0
BITMAP
78
04
7C
84
7C
ENDCHAR
STARTCHAR b
ENCODING 98
SWIDTH 1000 0
DWIDTH 8 0
BBX 6 7 1 0
BITMAP
80
80
F8
84
84
84
F8
ENDCHAR
STARTCHAR c
ENCODING 99
SWIDTH 1000 0
DWIDTH 8 0
BBX 6 5 1 0
BITMAP
78
84
80
84
78
ENDCHAR
STARTCHAR d
ENCODING 100
SWIDTH 1000 0
DWIDTH 8 0
BBX 6 7 1 0
BITMAP
04
04
7C
84
84
84
7C
ENDCHAR
STARTCHAR e
ENCODING 101
SWIDTH 1000 0
DWIDTH 8 0
BBX 6 5 1 0
BITMAP
78
84
F8
80
7C
ENDCHAR
STARTCHAR f
ENCODING 102
SWIDTH 1000 0
DWIDTH 8 0
BBX 4 7 2 0
BITMAP
30
40
E0
40
40
40
40
ENDCHAR
STARTCHAR g
ENCODING 103
SWIDTH 1000 0
DWIDTH 8 0
BBX 6 6 1 -1
BITMAP
7C
84
84
7C
04
78
ENDCHAR
STARTCHAR h
ENCODING 104
SWIDTH 1000 0
DWIDTH 8 0
BBX 6 7 1 0
BITMAP
80
80
F8
84
84
84
84
ENDCHAR
STARTCHAR i
ENCODING 105
SWIDTH 1000 0
DWIDTH 8 0
BBX 3 7 2 0
BITMAP
40
00
C0
40
40
40
E0
ENDCHAR
STARTCHAR j
ENCODING 106
SWIDTH 1000 0
DWIDTH 8 0
BBX 5 8 1 -1
BITMAP
08
00
18
08
08
08
88
70
ENDCHAR
STARTCHAR k
ENCODING 107
SWIDTH 1000 0
DWIDTH 8 0
BBX 6 7 1 0
BITMAP
80
80
84
88
F0
88
84
ENDCHAR
STARTCHAR l
ENCODING 108
SWIDTH 1000 0
DWIDTH 8 0
BBX 2 7 2 0
BITMAP
C0
40
40
40
40
40
40
ENDCHAR
STARTCHAR m
ENCODING 109
SWIDTH 1000 0
DWIDTH 8 0
BBX 7 5 0 0
BITMAP
FC
92
92
92
92
ENDCHAR
STARTCHAR n
ENCODING 110
SWIDTH 1000 0
DWIDTH 8 0
BBX 6 5 1 0
BITMAP
F8
84
84
84
84
ENDCHAR
STARTCHAR o
ENCODING 111
SWIDTH 1000 0
DWIDTH 8 0
BBX 6 5 1 0
BITMAP
78
84
84
84
78
ENDCHAR
STARTCHAR p
ENCODING 112
SWIDTH 1000 0
DWIDTH 8 0
BBX 6 6 1 -1
BITMAP
F8
84
84
84
F8
80
ENDCHAR
STARTCHAR q
ENCODING 113
SWIDTH 1000 0
DWIDTH 8 0
BBX 6 6 1 -1
BITMAP
7C
84
84
84
7C
04
ENDCHAR
STARTCHAR r
ENCODING 114
SWIDTH 1000 0
DWIDTH 8 0
BBX 6 5 1 0
BITMAP
BC
C0
80
80
80
ENDCHAR
STARTCHAR s
ENCODING 115
SWIDTH 1000 0
DWIDTH 8 0
BBX 6 5 1 0
BITMAP
7C
80
78
04
F8
ENDCHAR
STARTCHAR t
ENCODING 116
SWIDTH 1000 0
DWIDTH 8 0
BBX 4 7 2 0
BITMAP
40
40
E0
40
40
40
30
ENDCHAR
STARTCHAR u
ENCODING 117
SWIDTH 1000 0
DWIDTH 8 0
BBX 6 5 1 0
BITMAP
84
84
84
84
7C
ENDCHAR
STARTCHAR v
ENCODING 118
SWIDTH 1000 0
DWIDTH 8 0
BBX 6 5 1 0
BITMAP
84
84
84
48
30
ENDCHAR
STARTCHAR w
ENCODING 119
SWIDTH 1000 0
DWIDTH 8 0
BBX 7 5 1 0
BITMAP
82
92
92
92
6C
ENDCHAR
STARTCHAR x
ENCODING 120
SWIDTH 1000 0
DWIDTH 8 0
BBX 5 5 1 0
BITMAP
88
50
20
50
88
ENDCHAR
STARTCHAR y
ENCODING 121
SWIDTH 1000 0
DWIDTH 8 0
BBX 6 6 1 -1
BITMAP
84
84
84
7C
04
78
ENDCHAR
STARTCHAR z
ENCODING 122
SWIDTH 1000 0
DWIDTH 8 0
BBX 5 5 1 0
BITMAP
F8
10
20
40
F8
ENDCHAR
STARTCHAR braceleft
ENCODING 123
SWIDTH 1000 0
DWIDTH 8 0
BBX 3 7 2 0
BITMAP
20
40
40
80
40
40
20
ENDCHAR
STARTCHAR bar
ENCODING 124
SWIDTH 1000 0
DWIDTH 8 0
BBX 1 8 3 -1
BITMAP
80
80
80
80
80
80
80
80
ENDCHAR
STARTCHAR braceright
ENCODING 125
SWIDTH 1000 0
DWIDTH 8 0
BBX 3 7 3 0
BITMAP
80
40
40
20
40
40
80
ENDCHAR
STARTCHAR asciitilde
ENCODING 126
SWIDTH 1000 0
DWIDTH 8 0
BBX 7 3 0 2
BITMAP
60
92
0C
ENDCHAR
STARTCHAR uni007F
ENCODING 127
SWIDTH 1000 0
DWIDTH 8 0
BBX 1 1 0 0
BITMAP
00
ENDCHAR
STARTCHAR copyright
ENCODING 169
SWIDTH 1000 0
DWIDTH 8 0
BBX 7 7 0 0
BITMAP
38
44
BA
A2
BA
44
38
ENDCHAR
STARTCHAR registered
ENCODING 174
SWIDTH 1000 0
DWIDTH 8 0
BBX 7 7 0 0
BITMAP
38
44
BA
B2
AA
44
38
ENDCHAR
STARTCHAR afii10023
ENCODING 1025
SWIDTH 1000 0
DWIDTH 0 0
BBX 7 7 0 0
BITMAP
FE
80
80
F8
80
80
FE
ENDCHAR
STARTCHAR S.dup1
ENCODING 1029
SWIDTH 1000 0
DWIDTH 8 0
BBX 7 7 0 0
BITMAP
7C
82
80
7C
02
82
7C
ENDCHAR
STARTCHAR I.dup2
ENCODING 1030
SWIDTH 1000 0
DWIDTH 8 0
BBX 5 7 1 0
BITMAP
F8
20
20
20
20
20
F8
ENDCHAR
STARTCHAR J.dup3
ENCODING 1032
SWIDTH 1000 0
DWIDTH 8 0
BBX 7 7 0 0
BITMAP
02
02
02
02
02
82
7C
ENDCHAR
STARTCHAR A.dup4
ENCODING 1040
SWIDTH 1000 0
DWIDTH 8 0
BBX 7 7 0 0
BITMAP
10
28
28
44
7C
82
82
ENDCHAR
STARTCHAR afii10018
ENCODING 1041
SWIDTH 1000 0
DWIDTH 8 0
BBX 7 7 0 0
BITMAP
FE
80
80
FC
82
82
FC
ENDCHAR
STARTCHAR B.dup5
ENCODING 1042
SWIDTH 1000 0
DWIDTH 8 0
BBX 7 7 0 0
BITMAP
FC
82
82
FC
82
82
FC
ENDCHAR
STARTCHAR afii10020
ENCODING 1043
SWIDTH 1000 0
DWIDTH 8 0
BBX 7 7 0 0
BITMAP
FE
80
80
80
80
80
80
ENDCHAR
STARTCHAR afii10021
ENCODING 1044
SWIDTH 1000 0
DWIDTH 8 0
BBX 7 7 0 0
BITMAP
3C
44
44
44
44
FE
82
ENDCHAR
STARTCHAR E.dup6
ENCODING 1045
SWIDTH 1000 0
DWIDTH 8 0
BBX 7 7 0 0
BITMAP
FE
80
80
F8
80
80
FE
ENDCHAR
STARTCHAR afii10024
ENCODING 1046
SWIDTH 1000 0
DWIDTH 8 0
BBX 7 7 0 0
BITMAP
92
92
92
7C
92
92
92
ENDCHAR
STARTCHAR afii10025
ENCODING 1047
SWIDTH 1000 0
DWIDTH 8 0
BBX 7 7 0 0
BITMAP
7C
82
02
3C
02
82
7C
ENDCHAR
STARTCHAR afii10026
ENCODING 1048
SWIDTH 1000 0
DWIDTH 8 0
BBX 7 7 0 0
BITMAP
82
86
8A
92
A2
C2
82
ENDCHAR
STARTCHAR afii10027
ENCODING 1049
SWIDTH 1000 0
DWIDTH 8 0
BBX 7 7 0 0
BITMAP
BA
86
8A
92
A2
C2
82
ENDCHAR
STARTCHAR K.dup7
ENCODING 1050
SWIDTH 1000 0
DWIDTH 8 0
BBX 7 7 0 0
BITMAP
82
84
88
F0
88
84
82
ENDCHAR
STARTCHAR afii10029
ENCODING 1051
SWIDTH 1000 0
DWIDTH 8 0
BBX 7 7 0 0
BITMAP
7E
42
42
42
42
42
82
ENDCHAR
STARTCHAR M.dup8
ENCODING 1052
SWIDTH 1000 0
DWIDTH 8 0
BBX 7 7 0 0
BITMAP
82
C6
AA
92
82
82
82
ENDCHAR
STARTCHAR H.dup9
ENCODING 1053
SWIDTH 1000 0
DWIDTH 8 0
BBX 7 7 0 0
BITMAP
82
82
82
FE
82
82
82
ENDCHAR
STARTCHAR O.dup10
ENCODING 1054
SWIDTH 1000 0
DWIDTH 8 0
BBX 7 7 0 0
BITMAP
7C
82
82
82
82
82
7C
ENDCHAR
STARTCHAR afii10033
ENCODING 1055
SWIDTH 1000 0
DWIDTH 8 0
BBX 7 7 0 0
BITMAP
FE
82
82
82
82
82
82
ENDCHAR
STARTCHAR P.dup11
ENCODING 1056
SWIDTH 1000 0
DWIDTH 8 0
BBX 7 7 0 0
BITMAP
FC
82
82
82
FC
80
80
ENDCHAR
STARTCHAR C.dup12
ENCODING 1057
SWIDTH 1000 0
DWIDTH 8 0
BBX 7 7 0 0
BITMAP
7C
82
80
80
80
82
7C
ENDCHAR
STARTCHAR T.dup13
ENCODING 1058
SWIDTH 1000 0
DWIDTH 8 0
BBX 7 7 0 0
BITMAP
FE
10
10
10
10
10
10
ENDCHAR
STARTCHAR afii10037
ENCODING 1059
SWIDTH 1000 0
DWIDTH 8 0
BBX 7 7 0 0
BITMAP
82
82
82
7E
02
02
FC
ENDCHAR
STARTCHAR afii10038
ENCODING 1060
SWIDTH 1000 0
DWIDTH 8 0
BBX 7 7 0 0
BITMAP
7C
92
92
92
7C
10
10
ENDCHAR
STARTCHAR X.dup14
ENCODING 1061
SWIDTH 1000 0
DWIDTH 8 0
BBX 7 7 0 0
BITMAP
82
44
28
10
28
44
82
ENDCHAR
STARTCHAR afii10040
ENCODING 1062
SWIDTH 1000 0
DWIDTH 8 0
BBX 7 8 0 -1
BITMAP
84
84
84
84
84
84
FE
02
ENDCHAR
STARTCHAR afii10041
ENCODING 1063
SWIDTH 1000 0
DWIDTH 8 0
BBX 7 7 0 0
BITMAP
82
82
82
7E
02
02
02
ENDCHAR
STARTCHAR afii10042
ENCODING 1064
SWIDTH 1000 0
DWIDTH 8 0
BBX 7 7 0 0
BITMAP
92
92
92
92
92
92
FE
ENDCHAR
STARTCHAR afii10043
ENCODING 1065
SWIDTH 1000 0
DWIDTH 8 0
BBX 8 8 0 -1
BITMAP
92
92
92
92
92
92
FF
01
ENDCHAR
STARTCHAR afii10044
ENCODING 1066
SWIDTH 1000 0
DWIDTH 8 0
BBX 7 7 0 0
BITMAP
C0
40
40
7C
42
42
7C
ENDCHAR
STARTCHAR afii10045
ENCODING 1067
SWIDTH 1000 0
DWIDTH 8 0
BBX 7 7 0 0
BITMAP
82
82
82
F2
8A
8A
F2
ENDCHAR
STARTCHAR afii10046
ENCODING 1068
SWIDTH 1000 0
DWIDTH 8 0
BBX 7 7 0 0
BITMAP
80
80
80
FC
82
82
FC
ENDCHAR
STARTCHAR afii10047
ENCODING 1069
SWIDTH 1000 0
DWIDTH 8 0
BBX 7 7 0 0
BITMAP
7C
82
02
3E
02
82
7C
ENDCHAR
STARTCHAR afii10048
ENCODING 1070
SWIDTH 1000 0
DWIDTH 8 0
BBX 7 7 0 0
BITMAP
9C
A2
A2
E2
A2
A2
9C
ENDCHAR
STARTCHAR afii10049
ENCODING 1071
SWIDTH 1000 0
DWIDTH 8 0
BBX 7 7 0 0
BITMAP
7E
82
82
7E
42
82
82
ENDCHAR
STARTCHAR a.dup15
ENCODING 1072
SWIDTH 1000 0
DWIDTH 8 0
BBX 6 5 1 0
BITMAP
78
04
7C
84
7C
ENDCHAR
STARTCHAR afii10066
ENCODING 1073
SWIDTH 1000 0
DWIDTH 8 0
BBX 6 7 1 0
BITMAP
7C
80
F8
84
84
84
F8
ENDCHAR
STARTCHAR afii10067
ENCODING 1074
SWIDTH 1000 0
DWIDTH 8 0
BBX 6 5 1 0
BITMAP
F8
84
F8
84
F8
ENDCHAR
STARTCHAR afii10068
ENCODING 1075
SWIDTH 1000 0
DWIDTH 8 0
BBX 6 5 1 0
BITMAP
FC
80
80
80
80
ENDCHAR
STARTCHAR afii10069
ENCODING 1076
SWIDTH 1000 0
DWIDTH 8 0
BBX 6 6 1 -1
BITMAP
7C
84
84
7C
04
F8
ENDCHAR
STARTCHAR e.dup16
ENCODING 1077
SWIDTH 1000 0
DWIDTH 8 0
BBX 6 5 1 0
BITMAP
78
84
F8
80
7C
ENDCHAR
STARTCHAR afii10072
ENCODING 1078
SWIDTH 1000 0
DWIDTH 8 0
BBX 7 5 0 0
BITMAP
92
92
7C
92
92
ENDCHAR
STARTCHAR afii10073
ENCODING 1079
SWIDTH 1000 0
DWIDTH 8 0
BBX 6 5 1 0
BITMAP
F8
04
38
04
F8
ENDCHAR
STARTCHAR afii10074
ENCODING 1080
SWIDTH 1000 0
DWIDTH 8 0
BBX 6 5 1 0
BITMAP
84
84
84
84
7C
ENDCHAR
STARTCHAR afii10075
ENCODING 1081
SWIDTH 1000 0
DWIDTH 8 0
BBX 6 7 1 0
BITMAP
10
20
84
84
84
84
7C
ENDCHAR
STARTCHAR afii10076
ENCODING 1082
SWIDTH 1000 0
DWIDTH 8 0
BBX 6 5 1 0
BITMAP
84
84
F8
84
84
ENDCHAR
STARTCHAR afii10077
ENCODING 1083
SWIDTH 1000 0
DWIDTH 8 0
BBX 7 5 0 0
BITMAP
7E
42
42
42
82
ENDCHAR
STARTCHAR afii10078
ENCODING 1084
SWIDTH 1000 0
DWIDTH 8 0
BBX 7 5 0 0
BITMAP
82
C6
AA
92
82
ENDCHAR
STARTCHAR afii10079
ENCODING 1085
SWIDTH 1000 0
DWIDTH 8 0
BBX 6 5 1 0
BITMAP
84
84
FC
84
84
ENDCHAR
STARTCHAR o.dup17
ENCODING 1086
SWIDTH 1000 0
DWIDTH 8 0
BBX 6 5 1 0
BITMAP
78
84
84
84
78
ENDCHAR
STARTCHAR afii10081
ENCODING 1087
SWIDTH 1000 0
DWIDTH 8 0
BBX 6 5 1 0
BITMAP
FC
84
84
84
84
ENDCHAR
STARTCHAR p.dup18
ENCODING 1088
SWIDTH 1000 0
DWIDTH 8 0
BBX 6 6 1 -1
BITMAP
F8
84
84
84
F8
80
ENDCHAR
STARTCHAR c.dup19
ENCODING 1089
SWIDTH 1000 0
DWIDTH 8 0
BBX 6 5 1 0
BITMAP
78
84
80
84
78
ENDCHAR
STARTCHAR afii10084
ENCODING 1090
SWIDTH 1000 0
DWIDTH 8 0
BBX 5 5 1 0
BITMAP
F8
20
20
20
20
ENDCHAR
STARTCHAR y.dup20
ENCODING 1091
SWIDTH 1000 0
DWIDTH 8 0
BBX 6 6 1 -1
BITMAP
84
84
84
7C
04
78
ENDCHAR
STARTCHAR afii10086
ENCODING 1092
SWIDTH 1000 0
DWIDTH 8 0
BBX 7 6 0 -1
BITMAP
7C
92
92
92
7C
10
ENDCHAR
STARTCHAR x.dup21
ENCODING 1093
SWIDTH 1000 0
DWIDTH 8 0
BBX 5 5 1 0
BITMAP
88
50
20
50
88
ENDCHAR
STARTCHAR afii10088
ENCODING 1094
SWIDTH 1000 0
DWIDTH 8 0
BBX 6 6 1 -1
BITMAP
88
88
88
88
FC
04
ENDCHAR
STARTCHAR afii10089
ENCODING 1095
SWIDTH 1000 0
DWIDTH 8 0
BBX 6 5 1 0
BITMAP
84
84
7C
04
04
ENDCHAR
STARTCHAR afii10090
ENCODING 1096
SWIDTH 1000 0
DWIDTH 8 0
BBX 7 5 0 0
BITMAP
92
92
92
92
FE
ENDCHAR
STARTCHAR afii10091
ENCODING 1097
SWIDTH 1000 0
DWIDTH 8 0
BBX 8 6 0 -1
BITMAP
92
92
92
92
FF
01
ENDCHAR
STARTCHAR afii10092
ENCODING 1098
SWIDTH 1000 0
DWIDTH 8 0
BBX 7 5 0 0
BITMAP
C0
40
7C
42
7C
ENDCHAR
STARTCHAR afii10093
ENCODING 1099
SWIDTH 1000 0
DWIDTH 8 0
BBX 7 5 0 0
BITMAP
82
82
F2
8A
F2
ENDCHAR
STARTCHAR afii10094
ENCODING 1100
SWIDTH 1000 0
DWIDTH 8 0
BBX 6 5 1 0
BITMAP
80
80
F8
84
F8
ENDCHAR
STARTCHAR afii10095
ENCODING 1101
SWIDTH 1000 0
DWIDTH 8 0
BBX 6 5 1 0
BITMAP
F8
04
3C
04
F8
ENDCHAR
STARTCHAR afii10096
ENCODING 1102
SWIDTH 1000 0
DWIDTH 8 0
BBX 7 5 0 0
BITMAP
9C
A2
E2
A2
9C
ENDCHAR
STARTCHAR afii10097
ENCODING 1103
SWIDTH 1000 0
DWIDTH 8 0
BBX 6 5 1 0
BITMAP
7C
84
7C
44
84
ENDCHAR
STARTCHAR afii10071
ENCODING 1105
SWIDTH 1000 0
DWIDTH 8 0
BBX 6 7 1 0
BITMAP
48
00
78
84
F8
80
7C
ENDCHAR
STARTCHAR s.dup22
ENCODING 1109
SWIDTH 1000 0
DWIDTH 8 0
BBX 6 5 1 0
BITMAP
7C
80
78
04
F8
ENDCHAR
STARTCHAR i.dup23
ENCODING 1110
SWIDTH 1000 0
DWIDTH 8 0
BBX 3 7 2 0
BITMAP
40
00
C0
40
40
40
E0
ENDCHAR
STARTCHAR j.dup24
ENCODING 1112
SWIDTH 1000 0
DWIDTH 8 0
BBX 5 8 1 -1
BITMAP
08
00
18
08
08
08
88
70
ENDCHAR
ENDFONT
